# xmcd
#
# Track frame offsets:
#	150
#	16685
#	31819
#	48493
#	67570
#	81248
#	103084
#	118915
#	135672
#	153196
#
# Disc length: 2276 seconds
#
# Revision: 0
# Processed by: cddbd v1.5.2PL0 Copyright (c) Steve Scherf et al.
# Submitted via: dBpowerAMP V4.0
#
DISCID=7208e20a
DTITLE=Schuyler, Knobloch and Bickhardt - No Easy Horses
DYEAR=1987
DGENRE=Country
TTITLE0=No Easy Horses
TTITLE1=People Still Fall In Love
TTITLE2=Givers And Takers
TTITLE3=Those Were The Days, These Are The Nights
TTITLE4=Down In the Trenches Of Love
TTITLE5=This Old House
TTITLE6=The Way To Love (Is Through The Heart)
TTITLE7=You Take Me Home
TTITLE8=Living Without You
TTITLE9=American Steel
EXTD=
EXTT0=
EXTT1=
EXTT2=
EXTT3=
EXTT4=
EXTT5=
EXTT6=
EXTT7=
EXTT8=
EXTT9=
PLAYORDER=
